:FULLY-SPECIFIED
:FORCE-ALL-JOINTS-BE-3DOF
:DEGREES
238
root 6.03847 15.7387 -25.7039 9.10505 28.1908 -1.99498
lfemur -25.1721 19.5384 -5.79231
ltibia 37.8297 -0 0
lfoot -20.4381 -5.02823 0.111909
ltoes 41.7048 -0 0
rfemur -18.791 -3.98709 0.0470311
rtibia 46.8604 -0 0
rfoot -22.8776 -16.9141 -0.822679
rtoes 52.4783 -0 0
lowerback 0.0578257 -3.00155 0.641024
upperback -0.650661 -3.9859 0.678451
thorax -0.705008 -1.99391 0.35868
lowerneck -10.5919 -3.20567 1.35422
upperneck 2.47698 -4.49096 0.850888
head 2.68891 -2.18312 -0.18733
lclavicle -2.20651e-014 6.36111e-014 0
lhumerus -55.6329 -36.7211 119.81
lradius 60.3168 -0 0
lwrist 21.7893 0 0
lhand 10.4874 16.4284 0.276165
lfingers 7.12502 -0 0
lthumb 35.5589 42.591 0.167524
rclavicle -2.20651e-014 6.36111e-014 0
rhumerus -33.1565 -5.5384 -52.4838
rradius 67.8976 -0 0
rwrist 19.9836 0 0
rhand -21.6947 -19.826 0.612001
rfingers 7.12502 -0 0
rthumb 4.7023 -49.6668 0.595308
239
root 6.1081 15.7674 -25.7041 9.11528 29.5416 -2.15097
lfemur -26.321 20.088 -6.57898
ltibia 38.5937 -0 0
lfoot -20.2323 -4.74488 0.106819
ltoes 41.7125 -0 0
rfemur -18.1368 -3.2255 0.243653
rtibia 46.7173 -0 0
rfoot -22.6155 -18.562 -0.784724
rtoes 52.1191 -0 0
lowerback 0.0735417 -2.98987 0.677478
upperback -0.694518 -3.96773 0.908547
thorax -0.744556 -1.98407 0.57619
lowerneck -10.5363 -3.488 1.15357
upperneck 2.45596 -4.83911 0.84488
head 2.6718 -2.35923 -0.173394
lclavicle -2.20651e-014 6.36111e-014 0
lhumerus -55.4537 -36.425 119.93
lradius 60.4805 -0 0
lwrist 21.4508 0 0
lhand 10.0386 16.1076 0.263591
lfingers 7.12502 -0 0
lthumb 35.1352 42.3849 0.1599
rclavicle -2.20651e-014 6.36111e-014 0
rhumerus -33.9413 -6.12646 -53.5291
rradius 66.5415 -0 0
rwrist 21.0578 0 0
rhand -21.2688 -19.076 0.584072
rfingers 7.12502 -0 0
rthumb 5.11362 -48.9113 0.568141
240
root 6.17773 15.796 -25.7044 9.12137 30.8924 -2.30884
lfemur -27.4819 20.6226 -7.38003
ltibia 39.3577 -0 0
lfoot -20.0266 -4.46155 0.100712
ltoes 41.7203 -0 0
rfemur -17.4803 -2.46619 0.448838
rtibia 46.5741 -0 0
rfoot -22.3546 -20.2097 -0.739248
rtoes 51.7598 -0 0
lowerback 0.089265 -2.97819 0.713936
upperback -0.738301 -3.94939 1.13862
thorax -0.784065 -1.97407 0.793691
lowerneck -10.4797 -3.77013 0.952581
upperneck 2.43497 -5.18725 0.838996
head 2.65464 -2.53533 -0.159403
lclavicle -2.20651e-014 6.36111e-014 0
lhumerus -55.2743 -36.1292 120.051
lradius 60.6441 -0 0
lwrist 21.1123 0 0
lhand 9.58985 15.7869 0.248506
lfingers 7.12502 -0 0
lthumb 34.7116 42.1789 0.150752
rclavicle -2.20651e-014 6.36111e-014 0
rhumerus -34.716 -6.72861 -54.5673
rradius 65.1854 -0 0
rwrist 22.132 0 0
rhand -20.8433 -18.3262 0.550572
rfingers 7.12502 -0 0
rthumb 5.52454 -48.1561 0.535555
241
root 6.24736 15.8247 -25.7046 9.12315 32.2433 -2.46884
lfemur -28.6547 21.1417 -8.19534
ltibia 40.1217 -0 0
lfoot -19.8209 -4.17825 0.0935865
ltoes 41.728 -0 0
rfemur -16.8214 -1.70929 0.662613
rtibia 46.431 -0 0
rfoot -22.0952 -21.8571 -0.686291
rtoes 51.4006 -0 0
lowerback 0.104996 -2.96653 0.750396
upperback -0.782009 -3.93088 1.36868
thorax -0.823536 -1.96392 1.01118
lowerneck -10.4221 -4.05206 0.751243
upperneck 2.414 -5.5354 0.833238
head 2.63743 -2.71143 -0.145358
lclavicle -2.20651e-014 6.36111e-014 0
lhumerus -55.0948 -35.8337 120.173
lradius 60.8078 -0 0
lwrist 20.7738 0 0
lhand 9.14122 15.4664 0.23091
lfingers 7.12502 -0 0
lthumb 34.288 41.9729 0.140082
rclavicle -2.20651e-014 6.36111e-014 0
rhumerus -35.4807 -7.34457 -55.5986
rradius 63.8293 -0 0
rwrist 23.2062 0 0
rhand -20.4182 -17.5767 0.511507
rfingers 7.12502 -0 0
rthumb 5.93499 -47.4011 0.497556
242
root 6.317 15.8533 -25.7049 9.12042 33.5941 -2.63126
lfemur -29.8395 21.6451 -9.02477
ltibia 40.8857 -0 0
lfoot -19.6152 -3.89497 0.0854443
ltoes 41.7358 -0 0
rfemur -16.16 -0.954903 0.885012
rtibia 46.2879 -0 0
rfoot -21.8373 -23.5043 -0.625898
rtoes 51.0414 -0 0
lowerback 0.120733 -2.95488 0.786859
upperback -0.82564 -3.91219 1.59872
thorax -0.862968 -1.95363 1.22867
lowerneck -10.3635 -4.33379 0.549549
upperneck 2.39305 -5.88355 0.827604
head 2.62018 -2.88752 -0.131257
lclavicle -2.20651e-014 6.36111e-014 0
lhumerus -54.9153 -35.5385 120.295
lradius 60.9714 -0 0
lwrist 20.4353 0 0
lhand 8.69271 15.146 0.210805
lfingers 7.12502 -0 0
lthumb 33.8645 41.767 0.12789
rclavicle -2.20651e-014 6.36111e-014 0
rhumerus -36.2352 -7.97404 -56.623
rradius 62.4732 -0 0
rwrist 24.2804 0 0
rhand -19.9937 -16.8275 0.466886
rfingers 7.12502 -0 0
rthumb 6.3449 -46.6464 0.454154
243
root 6.38663 15.882 -25.7051 9.11298 34.945 -2.79638
lfemur -31.0361 22.1323 -9.86814
ltibia 41.6497 -0 0
lfoot -19.4095 -3.61172 0.0762852
ltoes 41.7435 -0 0
rfemur -15.4957 -0.203137 1.11608
rtibia 46.1447 -0 0
rfoot -21.5813 -25.1511 -0.558119
rtoes 50.6822 -0 0
lowerback 0.136478 -2.94323 0.823325
upperback -0.869195 -3.89332 1.82874
thorax -0.90236 -1.94318 1.44615
lowerneck -10.3039 -4.61531 0.347488
upperneck 2.37212 -6.2317 0.822094
head 2.60288 -3.06361 -0.117101
lclavicle -2.20651e-014 6.36111e-014 0
lhumerus -54.7356 -35.2436 120.418
lradius 61.1351 -0 0
lwrist 20.0968 0 0
lhand 8.24431 14.8257 0.188192
lfingers 7.12502 -0 0
lthumb 33.441 41.5612 0.114176
rclavicle -2.20651e-014 6.36111e-014 0
rhumerus -36.9793 -8.61674 -57.6406
rradius 61.1171 -0 0
rwrist 25.3546 0 0
rhand -19.5698 -16.0787 0.416721
rfingers 7.12502 -0 0
rthumb 6.75421 -45.892 0.405357
244
root 6.45626 15.9107 -25.7053 9.10059 36.2958 -2.96453
lfemur -32.2446 22.603 -10.7253
ltibia 42.4136 -0 0
lfoot -19.2039 -3.32851 0.0661098
ltoes 41.7513 -0 0
rfemur -14.8283 0.545894 1.35585
rtibia 46.0016 -0 0
rfoot -21.3274 -26.7976 -0.483013
rtoes 50.3229 -0 0
lowerback 0.152231 -2.9316 0.859794
upperback -0.912673 -3.87429 2.05874
thorax -0.941712 -1.93258 1.66361
lowerneck -10.2432 -4.89661 0.14505
upperneck 2.35122 -6.57986 0.816709
head 2.58553 -3.23969 -0.10289
lclavicle -2.20651e-014 6.36111e-014 0
lhumerus -54.5558 -34.9491 120.541
lradius 61.2987 -0 0
lwrist 19.7583 0 0
lhand 7.79604 14.5057 0.163075
lfingers 7.12502 -0 0
lthumb 33.0175 41.3556 0.098941
rclavicle -2.20651e-014 6.36111e-014 0
rhumerus -37.7132 -9.27237 -58.6515
rradius 59.761 -0 0
rwrist 26.4288 0 0
rhand -19.1466 -15.3303 0.361022
rfingers 7.12502 -0 0
rthumb 7.16283 -45.138 0.351177
245
root 6.52589 15.9393 -25.7056 9.08296 37.6465 -3.13607
lfemur -33.4646 23.0568 -11.5959
ltibia 43.1776 -0 0
lfoot -18.9984 -3.04534 0.0549182
ltoes 41.759 -0 0
rfemur -14.1577 1.29207 1.60439
rtibia 45.8585 -0 0
rfoot -21.0757 -28.4438 -0.400642
rtoes 49.9637 -0 0
lowerback 0.16799 -2.91998 0.896265
upperback -0.956073 -3.85507 2.28872
thorax -0.981024 -1.92184 1.88107
lowerneck -10.1815 -5.17771 -0.0577737
upperneck 2.33033 -6.92802 0.811447
head 2.56814 -3.41577 -0.0886221
lclavicle -2.20651e-014 6.36111e-014 0
lhumerus -54.3758 -34.6548 120.666
lradius 61.4624 -0 0
lwrist 19.4198 0 0
lhand 7.34793 14.1858 0.135454
lfingers 7.12502 -0 0
lthumb 32.5942 41.15 0.0821869
rclavicle -2.20651e-014 6.36111e-014 0
rhumerus -38.4366 -9.94065 -59.6557
rradius 58.4049 -0 0
rwrist 27.5029 0 0
rhand -18.7242 -14.5823 0.299801
rfingers 7.12502 -0 0
rthumb 7.5707 -44.3845 0.291627
246
root 6.59552 15.968 -25.7058 9.0598 38.9973 -3.31136
lfemur -34.6961 23.4933 -12.4798
ltibia 43.9416 -0 0
lfoot -18.7929 -2.76221 0.042711
ltoes 41.7668 -0 0
rfemur -13.4835 2.03529 1.86174
rtibia 45.7153 -0 0
rfoot -20.8265 -30.0895 -0.311077
rtoes 49.6045 -0 0
lowerback 0.183757 -2.90836 0.93274
upperback -0.999395 -3.83569 2.51868
thorax -1.02029 -1.91094 2.09852
lowerneck -10.1188 -5.45858 -0.260994
upperneck 2.30945 -7.27617 0.80631
head 2.5507 -3.59185 -0.0742983
lclavicle -2.20651e-014 6.36111e-014 0
lhumerus -54.1958 -34.3609 120.791
lradius 61.626 -0 0
lwrist 19.0814 0 0
lhand 6.89998 13.8662 0.105334
lfingers 7.12502 -0 0
lthumb 32.1708 40.9446 0.0639145
rclavicle -2.20651e-014 6.36111e-014 0
rhumerus -39.1495 -10.6213 -60.6534
rradius 57.0488 -0 0
rwrist 28.5771 0 0
rhand -18.3026 -13.8348 0.233073
rfingers 7.12502 -0 0
rthumb 7.97776 -43.6313 0.226719
247
root 6.66516 15.9967 -25.706 9.03077 40.3479 -3.49083
lfemur -35.9389 23.9122 -13.3766
ltibia 44.7056 -0 0
lfoot -18.5874 -2.47912 0.0294885
ltoes 41.7745 -0 0
rfemur -12.8057 2.77541 2.12796
rtibia 45.5722 -0 0
rfoot -20.58 -31.7349 -0.214393
rtoes 49.2453 -0 0
lowerback 0.199531 -2.89676 0.969217
upperback -1.04264 -3.81613 2.74862
thorax -1.05952 -1.8999 2.31596
lowerneck -10.0551 -5.73923 -0.464621
upperneck 2.2886 -7.62433 0.801297
head 2.53322 -3.76792 -0.059918
lclavicle -2.20651e-014 6.36111e-014 0
lhumerus -54.0155 -34.0673 120.917
lradius 61.7897 -0 0
lwrist 18.7429 0 0
lhand 6.4522 13.5468 0.072716
lfingers 7.12502 -0 0
lthumb 31.7476 40.7393 0.044125
rclavicle -2.20651e-014 6.36111e-014 0
rhumerus -39.8519 -11.314 -61.6448
rradius 55.6927 -0 0
rwrist 29.6513 0 0
rhand -17.8819 -13.0878 0.160853
rfingers 7.12502 -0 0
rthumb 8.38392 -42.8787 0.156468
248
root 6.73479 16.0253 -25.7063 8.99546 41.6985 -3.67494
lfemur -37.1927 24.3131 -14.2861
ltibia 45.4696 -0 0
lfoot -18.3821 -2.19608 0.0152514
ltoes 41.7823 -0 0
rfemur -12.124 3.51233 2.40313
rtibia 45.429 -0 0
rfoot -20.3364 -33.3798 -0.110671
rtoes 48.886 -0 0
lowerback 0.215312 -2.88516 1.0057
upperback -1.0858 -3.7964 2.97854
thorax -1.09871 -1.88871 2.5334
lowerneck -9.99029 -6.01965 -0.668665
upperneck 2.26775 -7.9725 0.796407
head 2.51568 -3.94399 -0.0454808
lclavicle -2.20651e-014 6.36111e-014 0
lhumerus -53.8351 -33.774 121.043
lradius 61.9533 -0 0
lwrist 18.4044 0 0
lhand 6.00461 13.2277 0.0376036
lfingers 7.12502 -0 0
lthumb 31.3244 40.5342 0.0228197
rclavicle -2.20651e-014 6.36111e-014 0
rhumerus -40.5437 -12.0185 -62.6298
rradius 54.3366 -0 0
rwrist 30.7255 0 0
rhand -17.4623 -12.3414 0.0831557
rfingers 7.12502 -0 0
rthumb 8.78912 -42.1266 0.080889
249
root 6.80442 16.054 -25.7065 8.95345 43.049 -3.86419
lfemur -38.4572 24.6957 -15.2078
ltibia 46.2336 0 0
lfoot -18.1768 -1.9131 0
ltoes 41.79 0 0
rfemur -11.4381 4.24592 2.68731
rtibia 45.2859 0 0
rfoot -20.0958 -35.0242 0
rtoes 48.5268 0 0
lowerback 0.231101 -2.87358 1.04218
upperback -1.12888 -3.77649 3.20844
thorax -1.13785 -1.87737 2.75082
lowerneck -9.92448 -6.29984 -0.873135
upperneck 2.24692 -8.32066 0.791641
head 2.4981 -4.12005 -0.0309865
lclavicle -2.20651e-014 6.36111e-014 0
lhumerus -53.6546 -33.4811 121.17
lradius 62.117 0 0
lwrist 18.0659 0 0
lhand 5.55722 12.9089 0
lfingers 7.12502 0 0
lthumb 30.9013 40.3292 0
rclavicle -2.20651e-014 6.36111e-014 0
rhumerus -41.2249 -12.7345 -63.6088
rradius 52.9805 0 0
rwrist 31.7997 0 0
rhand -17.0436 -11.5955 0
rfingers 7.12502 0 0
rthumb 9.1933 -761.375 0
